<?xml version="1.0" standalone="no"?><!DOCTYPE svg PUBLIC "-//W3C//DTD SVG 1.1//EN" "http://www.w3.org/Graphics/SVG/1.1/DTD/svg11.dtd"><svg class="icon" width="64px" height="64.00px" viewBox="0 0 1024 1024" version="1.1" xmlns="http://www.w3.org/2000/svg"><path d="M681.2 682.4l0.2-89.4-120.4 208.6 120.4 208.6-0.2-89.2h120.2c29 0.2 57.2-14.6 72.7-41.5l148.9-257.8c-21.8 37.7-62.4 61-105.9 60.7H681.2z m0 0M749.4 86c-17.1-29.4-48.4-47.8-82.4-47.8-34 0.1-65.4 18.6-82.1 48.2 0 0-27.7 47.7-55.5 96.1l56.1 97.1-78 43.8h240.9l120.5-208.6-77.2 44.8c0-0.1-30.2-52.8-42.3-73.6z m0 0" fill="#308FF3" /><path d="M1003.2 609.8c17-29.4 16.9-66-0.4-95.2L895.7 329.1 689 448.4l120.5 208.7h111c34 0.3 65.7-17.9 82.7-47.3z m0 0M284.1 561.2l77.3 44.9-120.5-208.6-240.9-0.1 77.3 44.4-60 104.2c-14.7 24.9-15.9 56.8-0.4 83.7l148.9 257.8c-21.8-37.7-21.6-84.6 0.4-122.1l117.9-204.2z m0 0" fill="#308FF3" /><path d="M185.9 876.3c17 29.4 48.7 47.6 82.7 47.3h214.2V684.9h-241c-27.9 48.4-55.5 96.1-55.5 96.1-17.2 29.4-17.3 65.9-0.4 95.3z m0 0M172.3 273.1l207.4 119.8S535.5 122.8 563.8 74c21.8-37.6 60.2-60.3 103.8-60.3H369.9c-31 0-57.1 17.5-72.3 42.2-26.1 42.7-125.3 217.2-125.3 217.2z m0 0" fill="#308FF3" /></svg>