<?xml version="1.0" standalone="no"?><!DOCTYPE svg PUBLIC "-//W3C//DTD SVG 1.1//EN" "http://www.w3.org/Graphics/SVG/1.1/DTD/svg11.dtd"><svg class="icon" width="64px" height="64.00px" viewBox="0 0 1024 1024" version="1.1" xmlns="http://www.w3.org/2000/svg"><path d="M821.74862187 155.0563552l-0.4096 0.13653333c-10.4220448 2.54862187-17.65831147-1.0467552-21.7543104-10.83164373a5.37031147 5.37031147 0 0 1-0.31857814-0.8192c-2.4576-10.28551147 1.2288-17.47626667 11.15022187-21.52675627l0.45511147-0.13653333 87.19928853-28.35342187a4.55111147 4.55111147 0 0 1 0.54613333-0.13653333c8.4195552-1.91146667 13.7443552 0.54613333 16.01991147 7.3728a18.75057813 18.75057813 0 0 1-0.45511147 12.78862187l-29.58222186 95.30026666a5.0972448 5.0972448 0 0 0 1.27431146 5.18826667c1.36533333 1.31982187 3.41333333 1.8204448 5.23377707 1.1832896l41.50613333-13.4712896 0.45511147-0.13653333c10.37653333-2.54862187 17.6128 1.0467552 21.75431147 10.78613333a5.9619552 5.9619552 0 0 1 0.27306666 0.91022293c2.50311147 10.28551147-1.2288 17.4307552-11.15022293 21.48124374l-0.4551104 0.13653333-89.33831147 29.0360896-0.45511146 0.13653333c-10.51306667 2.6396448-17.15768853-0.1820448-19.84284374-8.46506666a17.2032 17.2032 0 0 1-0.31857813-7.91893334 13.65333333 13.65333333 0 0 0 0.1820448-2.59413333 5.00622187 5.00622187 0 0 1 0.18204373-1.91146667l29.58222294-93.1612448a5.0972448 5.0972448 0 0 0-1.31982294-5.18826666 5.1427552 5.1427552 0 0 0-5.23377706-1.2288l-35.1800896 11.42328853zM679.02577813 756.3036448a375.14808853 375.14808853 0 0 0 305.47057707-173.12426667c8.92017813-13.97191147 30.62897813-5.64337813 27.94382293 10.6496-39.0940448 236.06613333-244.3491552 416.51768853-492.47573333 418.79324374C239.11537813 1015.12533333 8.6016 785.8403552 11.37777813 506.8572448 14.19946667 232.74382187 238.70577813 11.37777813 515.2768 11.37777813h0.86471147c16.5660448 0 21.0716448 22.7555552 5.7799104 29.17262187C389.3020448 96.16497813 295.59466667 225.37102187 292.6364448 376.74097813c-4.096 212.30933333 172.6691552 385.93422187 386.2983104 379.56266667z m-29.12711146-370.32391147l-0.4096 0.13653334c-18.432 4.55111147-31.26613333-1.8204448-38.41137814-19.20568854a5.0972448 5.0972448 0 0 1-0.27306666-0.8192c-4.55111147-18.2044448 1.95697813-30.9475552 19.56977813-38.0472896l0.4096-0.13653333L783.70133333 278.07288853l0.50062187-0.13653333c14.88213333-3.41333333 24.30293333 0.91022187 28.2168896 12.8796448a32.768 32.768 0 0 1-0.68266667 22.39146667l-54.11271146 173.8524448a5.0972448 5.0972448 0 0 0 1.36533333 5.18826666c1.36533333 1.36533333 3.32231147 1.8204448 5.18826667 1.18328854l79.872-25.94133334 0.4096-0.09102186c18.38648853-4.59662187 31.22062187 1.8204448 38.41137813 19.20568853a6.69013333 6.69013333 0 0 1 0.27306667 0.77368853c4.55111147 18.29546667-2.00248853 30.9475552-19.56977814 38.0928l-0.4096 0.13653334-156.74026666 50.92693333a2.2755552 2.2755552 0 0 1-0.4096 0.09102293c-18.52302187 4.64213333-30.1283552-0.27306667-34.90702187-14.7456a30.35591147 30.35591147 0 0 1-0.54613333-13.8808896 20.11591147 20.11591147 0 0 0 0.27306666-5.00622186 5.46133333 5.46133333 0 0 1 0.18204374-2.2755552l54.15822293-170.7576896a5.0972448 5.0972448 0 0 0-1.31982293-5.18826667 5.18826667 5.18826667 0 0 0-5.18826667-1.2288l-68.8583104 22.39146667z" fill="#308FF3" /></svg>