<?xml version="1.0" standalone="no"?><!DOCTYPE svg PUBLIC "-//W3C//DTD SVG 1.1//EN" "http://www.w3.org/Graphics/SVG/1.1/DTD/svg11.dtd"><svg class="icon" width="64px" height="58.20px" viewBox="0 0 1126 1024" version="1.1" xmlns="http://www.w3.org/2000/svg"><path d="M921.41151 539.055681l-124.448657 124.448657a32.967888 32.967888 0 1 1-46.585059-46.585059l124.397464-124.448657-124.141502-124.141503a33.01908 33.01908 0 0 1 46.687443-46.636251l124.090311 124.09031 124.243887-124.192695a33.01908 33.01908 0 0 1 46.636252 46.585059L968.047761 492.41943l124.602234 124.602234a33.01908 33.01908 0 0 1-46.585059 46.687443l-124.653426-124.653426zM243.6245 225.092861L504.193675 12.439746l6.347854-2.969157a104.074093 104.074093 0 0 1 106.326558 11.774246c30.459462 22.524644 48.376792 59.639114 48.632753 99.722741v781.861103a123.987926 123.987926 0 0 1-48.12083 99.569164c-31.227347 23.446107-71.669321 28.002228-106.838481 11.979015l-7.934817-3.583466-259.033404-211.68046H111.701756C49.451832 799.112932 0 744.234709 0 678.094164V346.060437C0 280.022277 49.451832 225.092861 111.650564 225.092861H243.675692z" fill="#308FF3" /></svg>