<?xml version="1.0" standalone="no"?><!DOCTYPE svg PUBLIC "-//W3C//DTD SVG 1.1//EN" "http://www.w3.org/Graphics/SVG/1.1/DTD/svg11.dtd"><svg class="icon" width="64px" height="64.00px" viewBox="0 0 1024 1024" version="1.1" xmlns="http://www.w3.org/2000/svg"><path d="M560.64 867.328c-13.824 12.288-29.696 18.432-48.128 18.432s-34.816-6.144-48.64-17.92c-13.824-12.288-20.992-28.672-20.992-50.688 0-18.944 6.656-34.816 19.968-48.128 13.312-13.312 29.696-19.968 48.64-19.968 19.456 0 35.84 6.656 49.152 19.968 13.824 13.312 20.48 29.184 20.48 48.128 0 20.992-6.656 37.888-20.48 50.176zM445.44 605.696l-34.304-269.312c0-51.2 44.032-93.184 97.28-93.184 53.76 0 97.28 41.984 97.28 93.184l-34.304 269.312c-17.408 138.752-113.152 132.096-125.952 0z" fill="#f14c37" /></svg>