<?xml version="1.0" standalone="no"?><!DOCTYPE svg PUBLIC "-//W3C//DTD SVG 1.1//EN" "http://www.w3.org/Graphics/SVG/1.1/DTD/svg11.dtd"><svg class="icon" width="64px" height="64.00px" viewBox="0 0 1024 1024" version="1.1" xmlns="http://www.w3.org/2000/svg"><path d="M723.7 63.7c23.9 0 38.8 4.1 50.8 12.2 11.9 8.1 23.9 24.3 29.9 48.7 3 8.1 9 24.3 14.9 44.6 6 20.3 14.9 44.6 23.9 68.9 9 24.3 17.9 52.7 29.9 85.1 9 28.4 20.9 56.8 29.9 85.1l23.9 68.9c6 20.3 11.9 36.5 14.9 44.6l9 24.3c3 4.1 3 12.2 6 16.2 3 4.1 3 12.2 3 20.3v283.8c0 24.3-6 48.7-17.9 64.9-11.9 16.2-26.9 28.4-47.8 28.4H126.6c-17.9 0-32.8-8.1-44.8-24.3-9-12.2-14.9-36.5-14.9-60.8V598.9c0-8.1 0-16.2 3-24.3 0-8.1 3-12.2 6-20.3 3-8.1 3-16.2 9-28.4 3-8.1 6-20.3 11.9-40.5 9-24.3 14.9-48.6 23.9-68.9 9-28.4 20.9-56.8 29.9-85.1 11.9-28.4 20.9-56.8 29.9-85.1 11.9-32.4 20.9-56.8 26.9-77l14.9-44.6c9-24.3 17.9-40.5 32.8-48.7 14.9-8.1 29.9-12.2 47.8-12.2h420.8z m173.2 579.8c0-28.4-9-40.5-26.9-40.5H159.4c-11.9 0-20.9 4.1-26.9 12.2s-9 20.3-9 32.4v194.6c0 12.2 3 20.3 6 28.4 3 8.1 11.9 12.2 20.9 12.2H864c11.9 0 20.9-4.1 26.9-12.2 3-8.1 6-20.3 6-32.4V643.5zM305.7 136.7c-9 0-17.9 4.1-23.9 12.2s-9 20.3-9 32.4c0 12.2 3 24.3 9 32.4s14.9 12.2 23.9 12.2c9 0 17.9-4.1 23.9-12.2 6-12.2 9-20.3 9-32.4 0-12.2-3-24.3-9-32.4-6-8.1-14.9-12.2-23.9-12.2zM228.1 380c-9 0-17.9 4.1-23.9 12.2s-9 20.3-9 32.4c0 12.2 3 24.3 9 32.4 6 8.1 14.9 12.2 23.9 12.2 9 0 17.9-4.1 23.9-12.2s9-20.3 9-32.4c0-12.2-3-24.3-9-32.4-6-8.2-15-12.2-23.9-12.2z m462.8-198.7c0 12.2 3 24.3 9 32.4s14.9 12.2 23.9 12.2c9 0 17.9-4.1 23.9-12.2 3-12.2 6-20.3 6-32.4 0-12.2-3-24.3-9-32.4-6-8.1-14.9-12.2-23.9-12.2-9 0-14.9 4.1-20.9 12.2s-9 20.2-9 32.4z m74.6 243.3c0 12.2 3 24.3 9 32.4 6 8.1 14.9 12.2 23.9 12.2 9 0 17.9-4.1 23.9-12.2s9-20.3 9-32.4c0-12.2-3-24.3-9-32.4-6-8.1-14.9-12.2-23.9-12.2-9 0-17.9 4.1-23.9 12.2-6 8-9 20.2-9 32.4zM246 846.2h-29.9V651.6H246v194.6z m92.6 0h-29.9V651.6h29.9v194.6z m92.5 0h-29.9V651.6h29.9v194.6z m89.6 0h-29.9V651.6h29.9v194.6z m95.5 0h-29.9V651.6h29.9v194.6z m92.6 0h-29.9V651.6h29.9v194.6z m89.6 0h-29.9V651.6h29.9v194.6z m0 0" fill="#308FF3" /></svg>